<?xml version="1.0" encoding="UTF-8" standalone="no"?>
<!-- Created with Inkscape (http://www.inkscape.org/) -->

<svg
   width="6.3500061mm"
   height="6.3500061mm"
   viewBox="0 0 6.3500062 6.3500062"
   version="1.1"
   id="svg5"
   xml:space="preserve"
   inkscape:version="1.2.2 (1:1.2.2+202305151914+b0a8486541)"
   sodipodi:docname="HashLookup.svg"
   xmlns:inkscape="http://www.inkscape.org/namespaces/inkscape"
   xmlns:sodipodi="http://sodipodi.sourceforge.net/DTD/sodipodi-0.dtd"
   xmlns="http://www.w3.org/2000/svg"
   xmlns:svg="http://www.w3.org/2000/svg"><sodipodi:namedview
     id="namedview7"
     pagecolor="#ffffff"
     bordercolor="#000000"
     borderopacity="0.25"
     inkscape:showpageshadow="2"
     inkscape:pageopacity="0.0"
     inkscape:pagecheckerboard="0"
     inkscape:deskcolor="#d1d1d1"
     inkscape:document-units="mm"
     showgrid="false"
     inkscape:zoom="0.7071068"
     inkscape:cx="1025.3048"
     inkscape:cy="494.26763"
     inkscape:window-width="2560"
     inkscape:window-height="1376"
     inkscape:window-x="0"
     inkscape:window-y="0"
     inkscape:window-maximized="1"
     inkscape:current-layer="layer1"
     showborder="false"
     showguides="true"><sodipodi:guide
       position="-137.87564,-73.325745"
       orientation="1,0"
       id="guide35103"
       inkscape:locked="false" /><sodipodi:guide
       position="-140.92296,-72.798645"
       orientation="1,0"
       id="guide35107"
       inkscape:locked="false" /><sodipodi:guide
       position="-148.40988,-109.22594"
       orientation="1,0"
       id="guide17700"
       inkscape:locked="false" /><sodipodi:guide
       position="-150.5614,-112.59354"
       orientation="1,0"
       id="guide17702"
       inkscape:locked="false" /></sodipodi:namedview><defs
     id="defs2" /><g
     inkscape:label="Layer 1"
     inkscape:groupmode="layer"
     id="layer1"
     transform="translate(-71.051749,-158.38036)"><g
       id="g38618"><rect
         style="fill:#48494a;fill-opacity:0.497161;stroke:#48494a;stroke-width:0.529167;stroke-linecap:round;stroke-linejoin:round;stroke-dasharray:none;stroke-opacity:1;paint-order:markers fill stroke"
         id="rect14410"
         width="5.8208332"
         height="5.8208332"
         x="71.316315"
         y="158.64496"
         rx="0.26458332"
         ry="0.26458332" /><g
         id="g38580"
         transform="translate(3.9513433,17.159075)"><rect
           style="fill:#2a2b2c;fill-opacity:1;stroke:none;stroke-width:0.393606;stroke-dasharray:none;stroke-opacity:1"
           id="rect38566"
           width="3.0773933"
           height="3.7264843"
           x="68.70446"
           y="142.73817" /><path
           id="path38568"
           style="fill:#76a4bd;fill-opacity:1;stroke:none;stroke-width:0.264754"
           d="m 68.944823,142.4761 c -0.255885,0 -0.463578,0.20772 -0.463578,0.46358 v 3.30893 c 0,0.25584 0.207693,0.46356 0.463578,0.46356 h 2.661133 c 0.255884,0 0.463575,-0.20772 0.463575,-0.46356 v -3.30893 c 0,-0.25586 -0.207691,-0.46358 -0.463575,-0.46358 z m -0.0069,0.3975 h 0.0069 2.661133 c 0.03655,0 0.06608,0.0271 0.06608,0.066 v 3.30893 c 0,0.0329 -0.02953,0.066 -0.06608,0.066 h -2.661133 c -0.03655,0 -0.06608,-0.0295 -0.06608,-0.066 v -3.30893 c 0,-0.0342 0.02566,-0.066 0.05919,-0.066 z"
           sodipodi:nodetypes="sccssccsssssccssccss" /><g
           id="g38574"><rect
             style="fill:#2a2b2c;fill-opacity:1;stroke:none;stroke-width:0.0687564;stroke-opacity:1"
             id="rect38570"
             width="1.3641312"
             height="0.62189126"
             x="69.597534"
             y="142.37917" /><path
             id="path38572"
             style="fill:#76a4bd;fill-opacity:1;stroke:none;stroke-width:0.264754"
             d="m 69.738922,142.08043 c -0.255884,0 -0.463577,0.20772 -0.463577,0.46358 v 0.26619 c 0,0.25585 0.207693,0.46357 0.463577,0.46357 h 1.067183 c 0.255883,0 0.463574,-0.20772 0.463574,-0.46357 v -0.26619 c 0,-0.25586 -0.207691,-0.46358 -0.463574,-0.46358 z m 0,0.3975 h 1.067183 c 0.03655,0 0.06608,0.0345 0.06608,0.066 v 0.2662 c 0,0.0338 -0.02953,0.066 -0.06608,0.066 h -1.067183 c -0.03655,0 -0.06608,-0.0295 -0.06608,-0.066 v -0.2662 c 0,-0.0323 0.01776,-0.066 0.06608,-0.066 z"
             sodipodi:nodetypes="sccssccsscsccssccc" /></g><path
           style="color:#000000;fill:#76a4bd;stroke-linecap:round;stroke-linejoin:round;-inkscape-stroke:none;paint-order:markers fill stroke"
           d="m 69.474119,143.74891 c -0.1074,-7.1e-4 -0.194945,0.086 -0.195312,0.19336 -7.23e-4,0.10817 0.08714,0.19604 0.195312,0.19532 h 1.604492 c 0.107404,-3.7e-4 0.194075,-0.0879 0.193359,-0.19532 -3.67e-4,-0.10664 -0.08672,-0.19299 -0.193359,-0.19336 z"
           id="path38576"
           sodipodi:nodetypes="ccccccc" /><path
           style="color:#000000;fill:#76a4bd;stroke-linecap:round;stroke-linejoin:round;-inkscape-stroke:none;paint-order:markers fill stroke"
           d="m 69.474119,144.58505 c -0.1074,-7.1e-4 -0.194945,0.086 -0.195312,0.19336 -7.23e-4,0.10817 0.08714,0.19604 0.195312,0.19532 h 1.604492 c 0.107404,-3.7e-4 0.194075,-0.0879 0.193359,-0.19532 -3.67e-4,-0.10664 -0.08672,-0.19299 -0.193359,-0.19336 z"
           id="path38578"
           sodipodi:nodetypes="ccccccc" /></g></g></g></svg>
