<?xml version="1.0" encoding="UTF-8" standalone="no"?>
<!-- Created with Inkscape (http://www.inkscape.org/) -->

<svg
   width="6.3500061mm"
   height="6.3500061mm"
   viewBox="0 0 6.3500062 6.3500062"
   version="1.1"
   id="svg5"
   xml:space="preserve"
   inkscape:version="1.2.2 (1:1.2.2+202305151914+b0a8486541)"
   sodipodi:docname="HashLookup.svg"
   xmlns:inkscape="http://www.inkscape.org/namespaces/inkscape"
   xmlns:sodipodi="http://sodipodi.sourceforge.net/DTD/sodipodi-0.dtd"
   xmlns="http://www.w3.org/2000/svg"
   xmlns:svg="http://www.w3.org/2000/svg"><sodipodi:namedview
     id="namedview7"
     pagecolor="#ffffff"
     bordercolor="#000000"
     borderopacity="0.25"
     inkscape:showpageshadow="2"
     inkscape:pageopacity="0.0"
     inkscape:pagecheckerboard="0"
     inkscape:deskcolor="#d1d1d1"
     inkscape:document-units="mm"
     showgrid="false"
     inkscape:zoom="0.7071068"
     inkscape:cx="1025.3048"
     inkscape:cy="494.26763"
     inkscape:window-width="2560"
     inkscape:window-height="1376"
     inkscape:window-x="0"
     inkscape:window-y="0"
     inkscape:window-maximized="1"
     inkscape:current-layer="layer1"
     showborder="false"
     showguides="false"><sodipodi:guide
       position="-120.77871,-82.776399"
       orientation="1,0"
       id="guide35103"
       inkscape:locked="false" /><sodipodi:guide
       position="-86.686463,5.55028"
       orientation="0,-1"
       id="guide35105"
       inkscape:locked="false" /><sodipodi:guide
       position="-123.82603,-82.249299"
       orientation="1,0"
       id="guide35107"
       inkscape:locked="false" /><sodipodi:guide
       position="-131.31296,-118.6766"
       orientation="1,0"
       id="guide17700"
       inkscape:locked="false" /><sodipodi:guide
       position="-133.46448,-122.04419"
       orientation="1,0"
       id="guide17702"
       inkscape:locked="false" /><sodipodi:guide
       position="8.8520007,13.12113"
       orientation="0.70710678,-0.70710678"
       id="guide23264"
       inkscape:locked="false" /><sodipodi:guide
       position="9.2927208,12.85843"
       orientation="0.70710678,-0.70710678"
       id="guide23266"
       inkscape:locked="false" /><sodipodi:guide
       position="9.6536108,12.18398"
       orientation="-0.70710678,-0.70710678"
       id="guide23268"
       inkscape:locked="false" /><sodipodi:guide
       position="9.0049507,12.27296"
       orientation="-0.70710678,-0.70710678"
       id="guide23270"
       inkscape:locked="false" /></sodipodi:namedview><defs
     id="defs2" /><g
     inkscape:label="Layer 1"
     inkscape:groupmode="layer"
     id="layer1"
     transform="translate(-53.954825,-148.92971)"><g
       id="g23438"><rect
         style="fill:#48494a;fill-opacity:0.499171;stroke:#76a4bd;stroke-width:0.529167;stroke-linecap:round;stroke-linejoin:round;stroke-dasharray:none;stroke-opacity:1;paint-order:markers fill stroke"
         id="rect18605"
         width="5.8208332"
         height="5.8208332"
         x="54.219398"
         y="149.19429"
         rx="0.26458332"
         ry="0.26458332" /><g
         id="g23404"
         transform="translate(-0.1752259,6.2163318)"><path
           style="fill:#2a2b2c;fill-opacity:1;stroke:none;stroke-width:0.0264583;stroke-opacity:1"
           d="m 58.980146,147.17897 -3.368944,-0.0136 0.04515,-2.53851 1.276826,0.003 0.5316,0.4636 1.487438,0.0994 z"
           id="path23400"
           sodipodi:nodetypes="ccccccc" /><path
           id="path22284"
           style="fill:#ebf0fa;fill-opacity:1;stroke:none;stroke-width:0.264583"
           d="m 55.815468,144.32023 c -0.255718,0 -0.463021,0.20731 -0.463021,0.46302 v 2.21025 c 0,0.25571 0.207303,0.46302 0.463021,0.46302 h 2.979146 c 0.255719,0 0.463021,-0.20731 0.463021,-0.46302 v -1.69801 c 0,-0.25571 -0.207302,-0.46302 -0.463021,-0.46302 h -1.275337 c -0.01831,0 -0.03587,-0.007 -0.04877,-0.0203 l -0.432223,-0.43618 c -0.03534,-0.0357 -0.08348,-0.0557 -0.13369,-0.0557 z m 2.979146,0.90963 c 0.03653,0 0.06615,0.0245 0.06615,0.0656 v 1.69801 c 0,0.0371 -0.02962,0.0661 -0.06615,0.0661 h -2.979146 c -0.03652,0 -0.06615,-0.0297 -0.06615,-0.0661 v -2.21025 c 0,-0.0342 0.02591,-0.0656 0.05943,-0.0656 m 0,0 h 2e-5 0.977658 c 0.0178,-1e-5 0.03487,0.007 0.04748,0.0196 l 0.436221,0.43453 c 0.03701,0.0369 0.08712,0.0576 0.139357,0.0576 l 1.385126,4.7e-4"
           sodipodi:nodetypes="cccssccsccscccsscccccccccssc" /></g></g></g></svg>
