<?xml version="1.0" encoding="UTF-8" standalone="no"?>
<!-- Created with Inkscape (http://www.inkscape.org/) -->

<svg
   width="6.3500061mm"
   height="6.3500061mm"
   viewBox="0 0 6.3500062 6.3500062"
   version="1.1"
   id="svg5"
   xml:space="preserve"
   inkscape:version="1.2.2 (1:1.2.2+202305151914+b0a8486541)"
   sodipodi:docname="HashLookup.svg"
   xmlns:inkscape="http://www.inkscape.org/namespaces/inkscape"
   xmlns:sodipodi="http://sodipodi.sourceforge.net/DTD/sodipodi-0.dtd"
   xmlns="http://www.w3.org/2000/svg"
   xmlns:svg="http://www.w3.org/2000/svg"><sodipodi:namedview
     id="namedview7"
     pagecolor="#ffffff"
     bordercolor="#000000"
     borderopacity="0.25"
     inkscape:showpageshadow="2"
     inkscape:pageopacity="0.0"
     inkscape:pagecheckerboard="0"
     inkscape:deskcolor="#d1d1d1"
     inkscape:document-units="mm"
     showgrid="false"
     inkscape:zoom="0.7071068"
     inkscape:cx="1025.3048"
     inkscape:cy="494.26763"
     inkscape:window-width="2560"
     inkscape:window-height="1376"
     inkscape:window-x="0"
     inkscape:window-y="0"
     inkscape:window-maximized="1"
     inkscape:current-layer="layer1"
     showborder="false"
     showguides="true"><sodipodi:guide
       position="-77.557736,-82.776399"
       orientation="1,0"
       id="guide35103"
       inkscape:locked="false" /><sodipodi:guide
       position="-80.605056,-82.249299"
       orientation="1,0"
       id="guide35107"
       inkscape:locked="false" /><sodipodi:guide
       position="-88.091976,-118.6766"
       orientation="1,0"
       id="guide17700"
       inkscape:locked="false" /><sodipodi:guide
       position="-90.243496,-122.04419"
       orientation="1,0"
       id="guide17702"
       inkscape:locked="false" /></sodipodi:namedview><defs
     id="defs2" /><g
     inkscape:label="Layer 1"
     inkscape:groupmode="layer"
     id="layer1"
     transform="translate(-10.733847,-148.92971)"><g
       id="g42350"><rect
         style="fill:#48494a;fill-opacity:0.499171;stroke:#76a4bd;stroke-width:0.529167;stroke-linecap:round;stroke-linejoin:round;stroke-dasharray:none;stroke-opacity:1;paint-order:markers fill stroke"
         id="rect33501"
         width="5.8208332"
         height="5.8208332"
         x="10.998428"
         y="149.19429"
         rx="0.26458332"
         ry="0.26458332" /><g
         id="g42260"><g
           id="g42244"
           transform="translate(-4.0825166,7.5044718)"><path
             id="path39568"
             style="fill:#81bd76;fill-opacity:1;stroke-width:0.0933388;stroke-linecap:round;stroke-linejoin:round;stroke-dashoffset:4.32378;paint-order:markers fill stroke"
             inkscape:transform-center-x="-0.13159167"
             inkscape:transform-center-y="0.13126052"
             d="m 15.756352,142.36243 0.234822,0.87939 0.227416,0.85181 0.28797,-0.98099 0.980312,-0.2873 -0.851466,-0.22775 z" /><path
             id="path39570"
             style="fill:#81bd76;fill-opacity:1;stroke-width:0.0933388;stroke-linecap:round;stroke-linejoin:round;stroke-dashoffset:4.32378;paint-order:markers fill stroke"
             inkscape:transform-center-x="-0.13126067"
             inkscape:transform-center-y="-0.13158948"
             d="m 15.746888,146.83176 0.87939,-0.23482 0.85181,-0.22742 -0.98099,-0.28797 -0.2873,-0.98031 -0.22775,0.85146 z" /><path
             id="path39572"
             style="fill:#81bd76;fill-opacity:1;stroke-width:0.0933388;stroke-linecap:round;stroke-linejoin:round;stroke-dashoffset:4.32378;paint-order:markers fill stroke"
             inkscape:transform-center-x="0.13159133"
             inkscape:transform-center-y="-0.13125948"
             d="m 20.235835,146.8402 -0.234822,-0.87939 -0.227416,-0.85181 -0.28797,0.98099 -0.980312,0.2873 0.851466,0.22775 z" /><path
             id="path39574"
             style="fill:#81bd76;fill-opacity:1;stroke-width:0.0933388;stroke-linecap:round;stroke-linejoin:round;stroke-dashoffset:4.32378;paint-order:markers fill stroke"
             inkscape:transform-center-x="0.13126033"
             inkscape:transform-center-y="0.13159052"
             d="m 20.22849,142.36027 -0.87939,0.23482 -0.85181,0.22742 0.98099,0.28797 0.2873,0.98031 0.22775,-0.85146 z" /></g><g
           id="g42250"><path
             style="fill:#2a2b2c;fill-opacity:1;stroke:none;stroke-width:0.388056;stroke-dasharray:none;stroke-opacity:1"
             d="m 13.198512,151.19376 0.01905,1.79833 1.391222,-0.0114 0.01373,-1.35513 -0.52888,-0.44955 z"
             id="path42246" /><path
             id="path11248"
             style="fill:#ebf0fa;fill-opacity:1;stroke:none;stroke-width:0.138711"
             d="m 13.237327,150.99509 c -0.1282,0.007 -0.229961,0.11308 -0.229961,0.24288 v 1.73375 c 0,0.13406 0.108299,0.24288 0.242363,0.24288 h 1.317749 c 0.125685,0 0.229415,-0.0957 0.241846,-0.21808 8.28e-4,-0.008 10e-4,-0.0164 10e-4,-0.0248 v -1.11415 l -10e-4,-0.20825 c -0.0039,-0.038 -0.01661,-0.074 -0.03721,-0.10594 -0.0056,-0.009 -0.01187,-0.0173 -0.0186,-0.0253 -0.0023,-0.003 -0.0048,-0.005 -0.0072,-0.008 -0.0024,-0.003 -0.0048,-0.005 -0.0072,-0.008 l -0.436666,-0.43615 c -0.0023,-0.002 -0.0048,-0.005 -0.0072,-0.007 -1.72e-4,-1.6e-4 -3.44e-4,-3.6e-4 -5.17e-4,-5.2e-4 -0.03888,-0.0358 -0.08829,-0.0575 -0.14056,-0.0625 l -0.207739,-0.001 h -0.696598 c -0.0042,0 -0.0083,-2.1e-4 -0.0124,0 z m 0.07286,0.29042 0.63252,0.006 h 0.0036 v 0.32401 c 0,0.13407 0.108815,0.24236 0.242879,0.24236 h 0.342635 l 5.17e-4,0.0227 0.0067,1.01234 c 0,0 -0.01411,0.0315 -0.03152,0.0315 h -1.197343 c -0.0174,0 -0.03152,-0.0142 -0.03152,-0.0315 v -1.57561 c 0,-0.0174 0.01666,-0.0316 0.03152,-0.0315 z" /></g></g></g></g></svg>
