<?xml version="1.0" encoding="UTF-8" standalone="no"?>
<!-- Created with Inkscape (http://www.inkscape.org/) -->

<svg
   width="6.3500061mm"
   height="6.3500061mm"
   viewBox="0 0 6.3500062 6.3500062"
   version="1.1"
   id="svg5"
   xml:space="preserve"
   inkscape:version="1.2.2 (1:1.2.2+202305151914+b0a8486541)"
   sodipodi:docname="HashLookup.svg"
   xmlns:inkscape="http://www.inkscape.org/namespaces/inkscape"
   xmlns:sodipodi="http://sodipodi.sourceforge.net/DTD/sodipodi-0.dtd"
   xmlns="http://www.w3.org/2000/svg"
   xmlns:svg="http://www.w3.org/2000/svg"><sodipodi:namedview
     id="namedview7"
     pagecolor="#ffffff"
     bordercolor="#000000"
     borderopacity="0.25"
     inkscape:showpageshadow="2"
     inkscape:pageopacity="0.0"
     inkscape:pagecheckerboard="0"
     inkscape:deskcolor="#d1d1d1"
     inkscape:document-units="mm"
     showgrid="false"
     inkscape:zoom="8.0000004"
     inkscape:cx="669.62497"
     inkscape:cy="554.12498"
     inkscape:window-width="1920"
     inkscape:window-height="1163"
     inkscape:window-x="0"
     inkscape:window-y="0"
     inkscape:window-maximized="1"
     inkscape:current-layer="g924"
     showborder="false"
     showguides="true"><sodipodi:guide
       position="-99.443448,-73.592942"
       orientation="1,0"
       id="guide35103"
       inkscape:locked="false" /><sodipodi:guide
       position="-102.49077,-73.065842"
       orientation="1,0"
       id="guide35107"
       inkscape:locked="false" /><sodipodi:guide
       position="-109.97769,-109.49314"
       orientation="1,0"
       id="guide17700"
       inkscape:locked="false" /><sodipodi:guide
       position="-112.12921,-112.86074"
       orientation="1,0"
       id="guide17702"
       inkscape:locked="false" /></sodipodi:namedview><defs
     id="defs2" /><g
     inkscape:label="Layer 1"
     inkscape:groupmode="layer"
     id="layer1"
     transform="translate(-32.619559,-158.11317)"><g
       id="g1625"><rect
         style="fill:#48494a;fill-opacity:0.497161;stroke:#48494a;stroke-width:0.529167;stroke-linecap:round;stroke-linejoin:round;stroke-dasharray:none;stroke-opacity:1;paint-order:markers fill stroke"
         id="rect19765"
         width="5.8208332"
         height="5.8208332"
         x="32.884151"
         y="158.37775"
         rx="0.26458332"
         ry="0.26458332" /><g
         id="g1591"
         transform="translate(-0.25965944,9.1834532)"><path
           id="path1579"
           style="fill:#ebf0fa;fill-opacity:1;stroke:none;stroke-width:0.264583"
           d="m 34.797455,150.18499 c -0.255588,0 -0.463021,0.20744 -0.463021,0.46302 v 1.65365 h 0.396875 v -1.65365 c 0,-0.0365 0.03497,-0.0663 0.06615,-0.0661 l 1.328084,0.0129 v 0.77256 c 0,0.25572 0.207303,0.46302 0.463021,0.46302 h 0.77463 l 0.0031,0.47129 h 0.407727 v -0.47129 l -0.0021,-0.39687 c -0.01081,-0.10539 -0.05805,-0.20453 -0.133842,-0.28009 l -0.833024,-0.83251 c -0.07618,-0.0764 -0.176322,-0.12353 -0.282671,-0.13384 l -0.396875,-0.002 z m 1.724959,0.41445 0.834058,0.83406 H 36.58856 c -0.03652,0 -0.06615,-0.0297 -0.06615,-0.0661 z" /><g
           aria-label="TYPE"
           id="g1589"
           style="font-size:1.86611px;font-family:'Roboto Black';-inkscape-font-specification:'Roboto Black, ';fill:#81bd76;stroke-width:0.201726;stroke-linecap:round"><path
             d="m 34.882897,152.94467 h -0.398188 v 1.07976 h -0.319827 v -1.07976 h -0.390899 v -0.24693 h 1.108914 z"
             id="path1581" /><path
             d="m 35.517994,153.27361 0.244198,-0.57587 h 0.34534 l -0.427347,0.85014 v 0.47655 h -0.324382 v -0.47655 l -0.426435,-0.85014 h 0.343517 z"
             id="path1583" /><path
             d="m 36.523944,153.5743 v 0.45013 h -0.319826 v -1.32669 h 0.529399 q 0.152168,0 0.2688,0.0565 0.117543,0.0556 0.181326,0.15945 0.06469,0.10297 0.06469,0.23418 0,0.19408 -0.139411,0.31071 -0.138501,0.11572 -0.380876,0.11572 z m 0,-0.24693 h 0.209573 q 0.09294,0 0.141234,-0.0465 0.0492,-0.0465 0.0492,-0.13121 0,-0.0929 -0.05011,-0.14852 -0.05012,-0.0556 -0.136678,-0.0565 h -0.213218 z"
             id="path1585" /><path
             d="m 38.241531,153.46223 h -0.502975 v 0.31618 h 0.594093 v 0.24602 h -0.91392 v -1.32669 h 0.915743 v 0.24693 h -0.595916 v 0.27974 h 0.502975 z"
             id="path1587" /></g></g></g></g></svg>
