<?xml version="1.0" encoding="UTF-8" standalone="no"?>
<!-- Created with Inkscape (http://www.inkscape.org/) -->

<svg
   width="6.3500061mm"
   height="6.3500061mm"
   viewBox="0 0 6.3500062 6.3500062"
   version="1.1"
   id="svg5"
   xml:space="preserve"
   inkscape:version="1.2.2 (1:1.2.2+202305151914+b0a8486541)"
   sodipodi:docname="HashLookup.svg"
   xmlns:inkscape="http://www.inkscape.org/namespaces/inkscape"
   xmlns:sodipodi="http://sodipodi.sourceforge.net/DTD/sodipodi-0.dtd"
   xmlns="http://www.w3.org/2000/svg"
   xmlns:svg="http://www.w3.org/2000/svg"><sodipodi:namedview
     id="namedview7"
     pagecolor="#ffffff"
     bordercolor="#000000"
     borderopacity="0.25"
     inkscape:showpageshadow="2"
     inkscape:pageopacity="0.0"
     inkscape:pagecheckerboard="0"
     inkscape:deskcolor="#d1d1d1"
     inkscape:document-units="mm"
     showgrid="false"
     inkscape:zoom="0.7071068"
     inkscape:cx="1025.3048"
     inkscape:cy="494.26763"
     inkscape:window-width="2560"
     inkscape:window-height="1376"
     inkscape:window-x="0"
     inkscape:window-y="0"
     inkscape:window-maximized="1"
     inkscape:current-layer="layer1"
     showborder="false"
     showguides="false"><sodipodi:guide
       position="-110.0097,-64.32373"
       orientation="1,0"
       id="guide35103"
       inkscape:locked="false" /><sodipodi:guide
       position="-75.917451,24.002948"
       orientation="0,-1"
       id="guide35105"
       inkscape:locked="false" /><sodipodi:guide
       position="-113.05702,-63.79663"
       orientation="1,0"
       id="guide35107"
       inkscape:locked="false" /><sodipodi:guide
       position="-120.54394,-100.22393"
       orientation="1,0"
       id="guide17700"
       inkscape:locked="false" /><sodipodi:guide
       position="-122.69546,-103.59152"
       orientation="1,0"
       id="guide17702"
       inkscape:locked="false" /><sodipodi:guide
       position="12.134893,30.247179"
       orientation="0,-1"
       id="guide27199"
       inkscape:locked="false" /><sodipodi:guide
       position="14.698063,28.820328"
       orientation="1,0"
       id="guide29240"
       inkscape:locked="false" /></sodipodi:namedview><defs
     id="defs2" /><g
     inkscape:label="Layer 1"
     inkscape:groupmode="layer"
     id="layer1"
     transform="translate(-43.185813,-167.38238)"><g
       id="g29283"><rect
         style="fill:#76a4bd;fill-opacity:0.497396;stroke:#76a4bd;stroke-width:0.529167;stroke-linecap:round;stroke-linejoin:round;stroke-dasharray:none;stroke-opacity:1;paint-order:markers fill stroke"
         id="rect19682"
         width="5.8208332"
         height="5.8208332"
         x="43.45039"
         y="167.64696"
         rx="0.26458332"
         ry="0.26458332" /><g
         id="g29276"
         transform="translate(-9.5588138,25.489304)"><path
           style="fill:#2a2b2c;fill-opacity:1;stroke:none;stroke-width:0.0264583;stroke-opacity:1"
           d="m 57.992599,145.97376 -3.368944,-0.0136 0.04515,-2.53851 1.276826,0.003 0.5316,0.4636 1.487438,0.0994 z"
           id="path29270"
           sodipodi:nodetypes="ccccccc" /><path
           id="path29272"
           style="fill:#ebf0fa;fill-opacity:1;stroke:none;stroke-width:0.264583"
           d="m 54.838579,143.08782 c -0.255718,0 -0.463021,0.20731 -0.463021,0.46302 v 2.21025 c 0,0.25571 0.207303,0.46302 0.463021,0.46302 h 2.979146 c 0.255719,0 0.463021,-0.20731 0.463021,-0.46302 v -1.69801 c 0,-0.25571 -0.207302,-0.46302 -0.463021,-0.46302 h -1.275337 c -0.01831,0 -0.03587,-0.007 -0.04877,-0.0203 l -0.432223,-0.43618 c -0.03534,-0.0357 -0.08348,-0.0557 -0.13369,-0.0557 z m 2.979146,0.90963 c 0.03653,0 0.06615,0.0245 0.06615,0.0656 v 1.69801 c 0,0.0371 -0.02962,0.0661 -0.06615,0.0661 h -2.979146 c -0.03652,0 -0.06615,-0.0297 -0.06615,-0.0661 v -2.21025 c 0,-0.0342 0.02591,-0.0656 0.05943,-0.0656 m 0,0 h 2e-5 0.977658 c 0.0178,-1e-5 0.03487,0.007 0.04748,0.0196 l 0.436221,0.43453 c 0.03701,0.0369 0.08712,0.0576 0.139357,0.0576 l 1.385126,4.7e-4"
           sodipodi:nodetypes="cccssccsccscccsscccccccccssc" /><path
           id="path29274"
           style="fill:#ebf0fa;fill-opacity:1;stroke:none;stroke-width:0.264583"
           d="m 53.756947,143.8956 c -0.204073,-1e-5 -0.198437,0.2093 -0.198437,0.2093 v 2.4804 c 0,0.25571 0.207303,0.46302 0.463021,0.46302 h 3.2365 c 0,0 0.198441,0.001 0.198441,-0.19844 0,-0.19951 -0.198441,-0.19844 -0.198441,-0.19844 h -3.2365 c -0.03652,0 -0.06615,-0.0297 -0.06615,-0.0661 v -2.48041 c 0,0 0.0056,-0.20932 -0.198434,-0.20933 z"
           sodipodi:nodetypes="zcssczcsscz" /></g></g></g></svg>
