<?xml version="1.0" encoding="UTF-8" standalone="no"?>
<!-- Created with Inkscape (http://www.inkscape.org/) -->

<svg
   width="6.3500061mm"
   height="6.3500061mm"
   viewBox="0 0 6.3500062 6.3500062"
   version="1.1"
   id="svg5"
   xml:space="preserve"
   inkscape:version="1.2.2 (b0a8486541, 2022-12-01)"
   sodipodi:docname="drawing.svg"
   xmlns:inkscape="http://www.inkscape.org/namespaces/inkscape"
   xmlns:sodipodi="http://sodipodi.sourceforge.net/DTD/sodipodi-0.dtd"
   xmlns="http://www.w3.org/2000/svg"
   xmlns:svg="http://www.w3.org/2000/svg"><sodipodi:namedview
     id="namedview7"
     pagecolor="#ffffff"
     bordercolor="#000000"
     borderopacity="0.25"
     inkscape:showpageshadow="2"
     inkscape:pageopacity="0.0"
     inkscape:pagecheckerboard="0"
     inkscape:deskcolor="#d1d1d1"
     inkscape:document-units="mm"
     showgrid="false"
     inkscape:zoom="4"
     inkscape:cx="226"
     inkscape:cy="563.75001"
     inkscape:window-width="2560"
     inkscape:window-height="1371"
     inkscape:window-x="0"
     inkscape:window-y="0"
     inkscape:window-maximized="1"
     inkscape:current-layer="layer1"
     showborder="false" /><defs
     id="defs2" /><g
     inkscape:label="Layer 1"
     inkscape:groupmode="layer"
     id="layer1"
     transform="translate(-112.27361,-158.38036)"><g
       id="g10995"><rect
         style="fill:#48494a;fill-opacity:0.497161;stroke:#48494a;stroke-width:0.529167;stroke-linecap:round;stroke-linejoin:round;stroke-dasharray:none;stroke-opacity:1;paint-order:markers fill stroke"
         id="rect10929"
         width="5.8208332"
         height="5.8208332"
         x="112.5382"
         y="158.64496"
         rx="0.26458332"
         ry="0.26458332" /><g
         aria-label="i"
         id="g10981"
         style="font-weight:bold;font-size:4.23333px;font-family:Consolas;-inkscape-font-specification:'Consolas Bold';fill:#ebf0fa;stroke-width:0.529167;stroke-linecap:round;stroke-linejoin:round;paint-order:markers fill stroke"
         transform="translate(0.03538198,9.4924401)"><path
           d="m 115.74293,150.87662 c 0,0.0455 -0.008,0.0882 -0.0248,0.12816 -0.0165,0.0399 -0.04,0.0751 -0.0703,0.10542 -0.0289,0.0289 -0.0634,0.0524 -0.10336,0.0703 -0.0399,0.0165 -0.0833,0.0248 -0.13022,0.0248 -0.0469,0 -0.091,-0.008 -0.13229,-0.0248 -0.04,-0.0179 -0.0751,-0.0414 -0.10542,-0.0703 -0.0289,-0.0303 -0.0517,-0.0655 -0.0682,-0.10542 -0.0165,-0.0399 -0.0248,-0.0827 -0.0248,-0.12816 0,-0.0455 0.008,-0.0882 0.0248,-0.12815 0.0165,-0.0399 0.0393,-0.0751 0.0682,-0.10542 0.0303,-0.0303 0.0655,-0.0538 0.10542,-0.0703 0.0413,-0.0179 0.0854,-0.0269 0.13229,-0.0269 0.0469,0 0.0903,0.009 0.13022,0.0269 0.04,0.0165 0.0744,0.04 0.10336,0.0703 0.0303,0.0303 0.0538,0.0655 0.0703,0.10542 0.0165,0.0399 0.0248,0.0827 0.0248,0.12815 z m -0.5581,0.99601 h -0.59325 v -0.39274 h 1.11001 v 1.70739 h 0.60565 v 0.39274 h -1.78801 v -0.39274 h 0.6656 z"
           id="path10979"
           sodipodi:nodetypes="ssscsccsssccsccssccccccccccc" /></g></g></g></svg>
