<?xml version="1.0" encoding="UTF-8" standalone="no"?>
<!-- Created with Inkscape (http://www.inkscape.org/) -->

<svg
   width="19.050001mm"
   height="6.3500061mm"
   viewBox="0 0 19.050001 6.3500062"
   version="1.1"
   id="svg5"
   xml:space="preserve"
   inkscape:version="1.2.2 (b0a8486541, 2022-12-01)"
   sodipodi:docname="drawing.svg"
   xmlns:inkscape="http://www.inkscape.org/namespaces/inkscape"
   xmlns:sodipodi="http://sodipodi.sourceforge.net/DTD/sodipodi-0.dtd"
   xmlns="http://www.w3.org/2000/svg"
   xmlns:svg="http://www.w3.org/2000/svg"><sodipodi:namedview
     id="namedview7"
     pagecolor="#ffffff"
     bordercolor="#000000"
     borderopacity="0.25"
     inkscape:showpageshadow="2"
     inkscape:pageopacity="0.0"
     inkscape:pagecheckerboard="0"
     inkscape:deskcolor="#d1d1d1"
     inkscape:document-units="mm"
     showgrid="false"
     inkscape:zoom="0.70710678"
     inkscape:cx="652.65956"
     inkscape:cy="571.34228"
     inkscape:window-width="2560"
     inkscape:window-height="1371"
     inkscape:window-x="0"
     inkscape:window-y="0"
     inkscape:window-maximized="1"
     inkscape:current-layer="layer1"
     showborder="false"
     showguides="true" /><defs
     id="defs2" /><g
     inkscape:label="Layer 1"
     inkscape:groupmode="layer"
     id="layer1"
     transform="translate(214.74121,-146.83687)"><g
       id="g21715"><rect
         style="fill:#48494a;fill-opacity:0.497161;stroke:#48494a;stroke-width:0.529167;stroke-linecap:round;stroke-linejoin:round;stroke-dasharray:none;stroke-opacity:1;paint-order:markers fill stroke"
         id="rect3133"
         width="18.520834"
         height="5.8208332"
         x="-214.47662"
         y="147.10146"
         rx="0.26458335"
         ry="0.26458332" /><g
         aria-label="# MD5"
         id="text20988"
         style="font-size:3.52778px;font-family:'Roboto Medium';-inkscape-font-specification:'Roboto Medium, ';fill:#ebf0fa;stroke:none;stroke-width:0.352777;stroke-linecap:round;stroke-linejoin:round;stroke-dashoffset:4.32378;stroke-opacity:0.504298;paint-order:markers fill stroke"
         transform="translate(-18.706677,-0.44653271)"><path
           d="m -190.49809,150.98895 h -0.38585 l -0.13091,0.70624 h -0.28939 l 0.13091,-0.70624 h -0.39791 v -0.27217 h 0.44959 l 0.0999,-0.53916 h -0.41857 v -0.27388 h 0.47025 l 0.13436,-0.71658 h 0.28767 l -0.13436,0.71658 h 0.38757 l 0.13436,-0.71658 h 0.28767 l -0.13436,0.71658 h 0.35829 v 0.27388 h -0.40997 l -0.0999,0.53916 h 0.38069 v 0.27217 h -0.43236 l -0.13092,0.70624 h -0.28766 z m -0.33417,-0.27217 h 0.38585 l 0.0999,-0.53916 h -0.38585 z"
           style="fill:#76a4bd;fill-opacity:1;stroke:none;stroke-width:0.352778"
           id="path21209" /><path
           d="m -187.88498,149.18716 0.72347,1.92236 0.72175,-1.92236 h 0.56327 v 2.50803 h -0.43408 v -0.82682 l 0.0431,-1.10588 -0.7407,1.9327 h -0.31178 l -0.73897,-1.93098 0.0431,1.10416 v 0.82682 h -0.43408 v -2.50803 z"
           style="stroke:none;stroke-width:0.352778"
           id="path21211" /><path
           d="m -185.36145,151.69519 v -2.50803 h 0.7407 q 0.33245,0 0.58911,0.14814 0.25838,0.14814 0.39963,0.4203 0.14125,0.27216 0.14125,0.62356 v 0.12575 q 0,0.35657 -0.14297,0.62701 -0.14125,0.27044 -0.4048,0.41685 -0.26183,0.14642 -0.60117,0.14642 z m 0.43581,-2.15663 v 1.80868 h 0.28422 q 0.34278,0 0.52537,-0.2136 0.18432,-0.21532 0.18776,-0.61667 v -0.13953 q 0,-0.40824 -0.17742,-0.62356 -0.17742,-0.21532 -0.51504,-0.21532 z"
           style="stroke:none;stroke-width:0.352778"
           id="path21213" /><path
           d="m -183.01189,150.45151 0.13608,-1.26435 h 1.34703 v 0.36173 h -0.99908 l -0.0689,0.59945 q 0.17398,-0.0999 0.39274,-0.0999 0.35829,0 0.55639,0.2291 0.19981,0.2291 0.19981,0.61668 0,0.3824 -0.22048,0.60978 -0.22049,0.22565 -0.60462,0.22565 -0.34451,0 -0.57189,-0.19465 -0.22565,-0.19637 -0.2446,-0.51676 h 0.4048 q 0.0241,0.18259 0.13092,0.28077 0.10679,0.0965 0.27905,0.0965 0.19292,0 0.29972,-0.13781 0.10852,-0.1378 0.10852,-0.37551 0,-0.2291 -0.11885,-0.36174 -0.11886,-0.13436 -0.32729,-0.13436 -0.11369,0 -0.19292,0.031 -0.0792,0.0293 -0.17226,0.11713 z"
           style="stroke:none;stroke-width:0.352778"
           id="path21215" /></g></g></g></svg>
