<?xml version="1.0" encoding="UTF-8" standalone="no"?>
<!-- Created with Inkscape (http://www.inkscape.org/) -->

<svg
   width="6.3500061mm"
   height="6.3500061mm"
   viewBox="0 0 6.3500062 6.3500062"
   version="1.1"
   id="svg5"
   xml:space="preserve"
   inkscape:version="1.2.2 (1:1.2.2+202305151914+b0a8486541)"
   sodipodi:docname="HashLookup.svg"
   xmlns:inkscape="http://www.inkscape.org/namespaces/inkscape"
   xmlns:sodipodi="http://sodipodi.sourceforge.net/DTD/sodipodi-0.dtd"
   xmlns="http://www.w3.org/2000/svg"
   xmlns:svg="http://www.w3.org/2000/svg"><sodipodi:namedview
     id="namedview7"
     pagecolor="#ffffff"
     bordercolor="#000000"
     borderopacity="0.25"
     inkscape:showpageshadow="2"
     inkscape:pageopacity="0.0"
     inkscape:pagecheckerboard="0"
     inkscape:deskcolor="#d1d1d1"
     inkscape:document-units="mm"
     showgrid="false"
     inkscape:zoom="8.0000004"
     inkscape:cx="669.62497"
     inkscape:cy="554.12498"
     inkscape:window-width="1920"
     inkscape:window-height="1163"
     inkscape:window-x="0"
     inkscape:window-y="0"
     inkscape:window-maximized="1"
     inkscape:current-layer="g924"
     showborder="false"
     showguides="true"><sodipodi:guide
       position="-88.296872,-64.32373"
       orientation="1,0"
       id="guide35103"
       inkscape:locked="false" /><sodipodi:guide
       position="-91.344192,-63.79663"
       orientation="1,0"
       id="guide35107"
       inkscape:locked="false" /><sodipodi:guide
       position="-98.831112,-100.22393"
       orientation="1,0"
       id="guide17700"
       inkscape:locked="false" /><sodipodi:guide
       position="-100.98263,-103.59152"
       orientation="1,0"
       id="guide17702"
       inkscape:locked="false" /></sodipodi:namedview><defs
     id="defs2" /><g
     inkscape:label="Layer 1"
     inkscape:groupmode="layer"
     id="layer1"
     transform="translate(-21.472983,-167.38238)"><g
       id="g1505"><rect
         style="fill:#76a4bd;fill-opacity:0.497396;stroke:#76a4bd;stroke-width:0.529167;stroke-linecap:round;stroke-linejoin:round;stroke-dasharray:none;stroke-opacity:1;paint-order:markers fill stroke"
         id="rect20415"
         width="5.8208332"
         height="5.8208332"
         x="21.737566"
         y="167.64696"
         rx="0.26458332"
         ry="0.26458332" /><g
         id="g1495"
         transform="translate(9.7351062e-8,18.452664)"><path
           id="path1483"
           style="fill:#ebf0fa;fill-opacity:1;stroke:none;stroke-width:0.264583"
           d="m 23.391212,150.18499 c -0.255588,0 -0.463021,0.20744 -0.463021,0.46302 v 1.65365 h 0.396875 v -1.65365 c 0,-0.0365 0.03497,-0.0663 0.06615,-0.0661 l 1.328084,0.0129 v 0.77256 c 0,0.25572 0.207303,0.46302 0.463021,0.46302 h 0.77463 l 0.0031,0.47129 h 0.407727 v -0.47129 l -0.0021,-0.39687 c -0.01081,-0.10539 -0.05805,-0.20453 -0.133842,-0.28009 l -0.833024,-0.83251 c -0.07618,-0.0764 -0.176322,-0.12353 -0.282671,-0.13384 l -0.396875,-0.002 z m 1.724959,0.41445 0.834058,0.83406 h -0.767912 c -0.03652,0 -0.06615,-0.0297 -0.06615,-0.0661 z" /><g
           aria-label="MIME"
           id="g1493"
           style="font-size:1.86611px;font-family:'Roboto Black';-inkscape-font-specification:'Roboto Black, ';fill:#81bd76;stroke-width:0.201726;stroke-linecap:round"><path
             d="m 22.693032,152.69774 0.296136,0.92303 0.295224,-0.92303 h 0.420968 v 1.32669 h -0.320737 v -0.3098 l 0.03098,-0.63419 -0.320738,0.94399 H 22.88347 l -0.321649,-0.9449 0.03098,0.6351 v 0.3098 h -0.319827 v -1.32669 z"
             id="path1485" /><path
             d="m 24.249339,154.02443 h -0.318915 v -1.32669 h 0.318915 z"
             id="path1487" /><path
             d="m 24.891725,152.69774 0.296136,0.92303 0.295224,-0.92303 h 0.420968 v 1.32669 h -0.320737 v -0.3098 l 0.03098,-0.63419 -0.320737,0.94399 h -0.211396 l -0.321649,-0.9449 0.03098,0.6351 v 0.3098 h -0.319827 v -1.32669 z"
             id="path1489" /><path
             d="m 26.93005,153.46223 h -0.502975 v 0.31618 h 0.594093 v 0.24602 h -0.91392 v -1.32669 h 0.915743 v 0.24693 h -0.595916 v 0.27974 h 0.502975 z"
             id="path1491" /></g></g></g></g></svg>
