<?xml version="1.0" encoding="UTF-8" standalone="no"?>
<!-- Created with Inkscape (http://www.inkscape.org/) -->

<svg
   width="19.050003mm"
   height="6.3500061mm"
   viewBox="0 0 19.050003 6.3500062"
   version="1.1"
   id="svg5"
   xml:space="preserve"
   inkscape:version="1.2.2 (b0a8486541, 2022-12-01)"
   sodipodi:docname="drawing.svg"
   xmlns:inkscape="http://www.inkscape.org/namespaces/inkscape"
   xmlns:sodipodi="http://sodipodi.sourceforge.net/DTD/sodipodi-0.dtd"
   xmlns="http://www.w3.org/2000/svg"
   xmlns:svg="http://www.w3.org/2000/svg"><sodipodi:namedview
     id="namedview7"
     pagecolor="#ffffff"
     bordercolor="#000000"
     borderopacity="0.25"
     inkscape:showpageshadow="2"
     inkscape:pageopacity="0.0"
     inkscape:pagecheckerboard="0"
     inkscape:deskcolor="#d1d1d1"
     inkscape:document-units="mm"
     showgrid="false"
     inkscape:zoom="0.70710678"
     inkscape:cx="652.65956"
     inkscape:cy="571.34228"
     inkscape:window-width="2560"
     inkscape:window-height="1371"
     inkscape:window-x="0"
     inkscape:window-y="0"
     inkscape:window-maximized="1"
     inkscape:current-layer="layer1"
     showborder="false"
     showguides="true" /><defs
     id="defs2" /><g
     inkscape:label="Layer 1"
     inkscape:groupmode="layer"
     id="layer1"
     transform="translate(188.90196,-146.83687)"><g
       id="g21740"><rect
         style="fill:#48494a;fill-opacity:0.497161;stroke:#48494a;stroke-width:0.529167;stroke-linecap:round;stroke-linejoin:round;stroke-dasharray:none;stroke-opacity:1;paint-order:markers fill stroke"
         id="rect21621"
         width="18.520834"
         height="5.8208332"
         x="-188.63737"
         y="147.10146"
         rx="0.26458335"
         ry="0.26458332" /><g
         aria-label="# SHA1"
         id="text21203"
         style="font-size:3.52778px;font-family:'Roboto Medium';-inkscape-font-specification:'Roboto Medium, ';fill:#ebf0fa;stroke:none;stroke-width:0.352777;stroke-linecap:round;stroke-linejoin:round;stroke-dashoffset:4.32378;stroke-opacity:0.504298;paint-order:markers fill stroke"
         transform="translate(10.361582,6.8687873)"><path
           d="m -194.26626,143.69083 h -0.38585 l -0.13092,0.70625 h -0.28939 l 0.13092,-0.70625 h -0.39791 v -0.27216 h 0.44958 l 0.0999,-0.53916 h -0.41858 v -0.27388 h 0.47026 l 0.13436,-0.71658 h 0.28766 l -0.13436,0.71658 h 0.38758 l 0.13436,-0.71658 h 0.28766 l -0.13436,0.71658 h 0.35829 v 0.27388 h -0.40996 l -0.0999,0.53916 h 0.38068 v 0.27216 h -0.43236 l -0.13091,0.70625 h -0.28767 z m -0.33418,-0.27216 h 0.38585 l 0.0999,-0.53916 h -0.38585 z"
           style="fill:#76a4bd;fill-opacity:1;stroke:none;stroke-width:0.352778"
           id="path21295" /><path
           d="m -190.90729,143.75112 q 0,-0.16536 -0.11714,-0.25493 -0.11541,-0.0896 -0.41858,-0.18087 -0.30316,-0.0913 -0.48231,-0.20326 -0.34279,-0.21532 -0.34279,-0.56155 0,-0.30317 0.24633,-0.49954 0.24804,-0.19637 0.64251,-0.19637 0.26183,0 0.46681,0.0965 0.20498,0.0965 0.32212,0.27561 0.11713,0.17742 0.11713,0.39446 h -0.43408 q 0,-0.19637 -0.12403,-0.30661 -0.1223,-0.11197 -0.3514,-0.11197 -0.21359,0 -0.33245,0.0913 -0.11713,0.0913 -0.11713,0.25493 0,0.13781 0.12747,0.23083 0.12747,0.0913 0.4203,0.17914 0.29283,0.0861 0.47025,0.19809 0.17743,0.11025 0.26011,0.25494 0.0827,0.14297 0.0827,0.3359 0,0.3135 -0.24116,0.49954 -0.23943,0.18431 -0.65112,0.18431 -0.27216,0 -0.50126,-0.0999 -0.22738,-0.10163 -0.35485,-0.27905 -0.12574,-0.17742 -0.12574,-0.41341 h 0.4358 q 0,0.21359 0.14125,0.33073 0.14125,0.11713 0.4048,0.11713 0.22738,0 0.34107,-0.0913 0.11541,-0.093 0.11541,-0.24461 z"
           style="stroke:none;stroke-width:0.352778"
           id="path21297" /><path
           d="m -188.09782,144.39708 h -0.43408 v -1.11449 h -1.12138 v 1.11449 h -0.4358 v -2.50803 h 0.4358 v 1.04386 h 1.12138 v -1.04386 h 0.43408 z"
           style="stroke:none;stroke-width:0.352778"
           id="path21299" /><path
           d="m -186.14789,143.81314 h -0.97152 l -0.20326,0.58394 h -0.45303 l 0.9474,-2.50803 h 0.39102 l 0.94913,2.50803 h -0.45476 z m -0.84922,-0.3514 h 0.72692 l -0.36346,-1.04042 z"
           style="stroke:none;stroke-width:0.352778"
           id="path21301" /><path
           d="m -184.13768,144.39708 h -0.41685 v -2.01366 l -0.61495,0.21015 v -0.35312 l 0.97841,-0.36001 h 0.0534 z"
           style="stroke:none;stroke-width:0.352778"
           id="path21303" /></g></g></g></svg>
