<?xml version="1.0" encoding="UTF-8" standalone="no"?>
<!-- Created with Inkscape (http://www.inkscape.org/) -->

<svg
   width="19.050003mm"
   height="6.3500061mm"
   viewBox="0 0 19.050003 6.3500062"
   version="1.1"
   id="svg5"
   xml:space="preserve"
   inkscape:version="1.2.2 (b0a8486541, 2022-12-01)"
   sodipodi:docname="drawing.svg"
   xmlns:inkscape="http://www.inkscape.org/namespaces/inkscape"
   xmlns:sodipodi="http://sodipodi.sourceforge.net/DTD/sodipodi-0.dtd"
   xmlns="http://www.w3.org/2000/svg"
   xmlns:svg="http://www.w3.org/2000/svg"><sodipodi:namedview
     id="namedview7"
     pagecolor="#ffffff"
     bordercolor="#000000"
     borderopacity="0.25"
     inkscape:showpageshadow="2"
     inkscape:pageopacity="0.0"
     inkscape:pagecheckerboard="0"
     inkscape:deskcolor="#d1d1d1"
     inkscape:document-units="mm"
     showgrid="false"
     inkscape:zoom="0.70710678"
     inkscape:cx="652.65956"
     inkscape:cy="571.34228"
     inkscape:window-width="2560"
     inkscape:window-height="1371"
     inkscape:window-x="0"
     inkscape:window-y="0"
     inkscape:window-maximized="1"
     inkscape:current-layer="layer1"
     showborder="false"
     showguides="true" /><defs
     id="defs2" /><g
     inkscape:label="Layer 1"
     inkscape:groupmode="layer"
     id="layer1"
     transform="translate(163.54834,-154.16767)"><g
       id="g21780"><rect
         style="fill:#48494a;fill-opacity:0.499171;stroke:#76a4bd;stroke-width:0.529166;stroke-linecap:round;stroke-linejoin:round;stroke-dasharray:none;stroke-opacity:1;paint-order:markers fill stroke"
         id="rect21629"
         width="18.520834"
         height="5.8208332"
         x="-163.28375"
         y="154.43227"
         rx="0.26458332"
         ry="0.26458332" /><g
         aria-label="# SHA256"
         id="g21691"
         style="font-size:3.52778px;font-family:'Roboto Medium';-inkscape-font-specification:'Roboto Medium, ';fill:#ebf0fa;stroke:none;stroke-width:0.352777;stroke-linecap:round;stroke-linejoin:round;stroke-dashoffset:4.32378;stroke-opacity:0.504298;paint-order:markers fill stroke"
         transform="translate(17.905435,14.189098)"><path
           d="m -178.73024,143.70133 h -0.38585 l -0.13091,0.70625 h -0.28939 l 0.13091,-0.70625 h -0.39791 v -0.27216 h 0.44959 l 0.0999,-0.53916 h -0.41858 v -0.27388 h 0.47025 l 0.13436,-0.71658 h 0.28767 l -0.13436,0.71658 h 0.38757 l 0.13436,-0.71658 h 0.28767 l -0.13436,0.71658 h 0.35829 v 0.27388 h -0.40997 l -0.0999,0.53916 h 0.38069 v 0.27216 h -0.43236 l -0.13092,0.70625 h -0.28766 z m -0.33417,-0.27216 h 0.38585 l 0.0999,-0.53916 h -0.38585 z"
           style="fill:#76a4bd;fill-opacity:1;stroke:none;stroke-width:0.352778"
           id="path21677" /><path
           d="m -175.37127,143.76162 q 0,-0.16536 -0.11713,-0.25494 -0.11541,-0.0896 -0.41858,-0.18086 -0.30317,-0.0913 -0.48231,-0.20326 -0.34279,-0.21532 -0.34279,-0.56155 0,-0.30317 0.24632,-0.49954 0.24805,-0.19637 0.64251,-0.19637 0.26183,0 0.46682,0.0965 0.20498,0.0965 0.32211,0.27561 0.11714,0.17742 0.11714,0.39446 h -0.43409 q 0,-0.19637 -0.12402,-0.30661 -0.1223,-0.11197 -0.3514,-0.11197 -0.2136,0 -0.33245,0.0913 -0.11714,0.0913 -0.11714,0.25493 0,0.13781 0.12747,0.23082 0.12747,0.0913 0.4203,0.17915 0.29284,0.0861 0.47026,0.19809 0.17742,0.11025 0.26011,0.25494 0.0827,0.14297 0.0827,0.3359 0,0.3135 -0.24116,0.49954 -0.23943,0.18431 -0.65112,0.18431 -0.27217,0 -0.50126,-0.0999 -0.22738,-0.10163 -0.35485,-0.27905 -0.12575,-0.17742 -0.12575,-0.41341 h 0.43581 q 0,0.21359 0.14125,0.33073 0.14125,0.11713 0.4048,0.11713 0.22737,0 0.34106,-0.0913 0.11541,-0.093 0.11541,-0.2446 z"
           style="stroke:none;stroke-width:0.352778"
           id="path21679" /><path
           d="m -172.56179,144.40758 h -0.43408 v -1.11449 h -1.12138 v 1.11449 h -0.43581 v -2.50803 h 0.43581 v 1.04386 h 1.12138 v -1.04386 h 0.43408 z"
           style="stroke:none;stroke-width:0.352778"
           id="path21681" /><path
           d="m -170.61186,143.82363 h -0.97152 l -0.20326,0.58395 h -0.45303 l 0.9474,-2.50803 h 0.39102 l 0.94912,2.50803 h -0.45475 z m -0.84922,-0.3514 h 0.72691 l -0.36345,-1.04042 z"
           style="stroke:none;stroke-width:0.352778"
           id="path21683" /><path
           d="m -168.04871,144.40758 h -1.68638 v -0.28767 l 0.83544,-0.91123 q 0.18087,-0.20153 0.25666,-0.33589 0.0775,-0.13608 0.0775,-0.27217 0,-0.17914 -0.10163,-0.28938 -0.0999,-0.11025 -0.27044,-0.11025 -0.20326,0 -0.31522,0.12403 -0.11197,0.12402 -0.11197,0.33934 h -0.41858 q 0,-0.2291 0.10335,-0.41169 0.10508,-0.18431 0.29801,-0.28594 0.19464,-0.10163 0.44786,-0.10163 0.36518,0 0.57533,0.18431 0.21187,0.18259 0.21187,0.50643 0,0.18776 -0.1068,0.39446 -0.10507,0.20498 -0.34623,0.46681 l -0.61322,0.65629 h 1.16444 z"
           style="stroke:none;stroke-width:0.352778"
           id="path21685" /><path
           d="m -167.61807,143.1639 0.13608,-1.26435 h 1.34703 v 0.36173 h -0.99908 l -0.0689,0.59945 q 0.17398,-0.0999 0.39274,-0.0999 0.35829,0 0.55638,0.2291 0.19982,0.2291 0.19982,0.61667 0,0.38241 -0.22049,0.60978 -0.22048,0.22566 -0.60461,0.22566 -0.34451,0 -0.57189,-0.19465 -0.22565,-0.19637 -0.2446,-0.51676 h 0.4048 q 0.0241,0.18259 0.13091,0.28077 0.1068,0.0965 0.27906,0.0965 0.19292,0 0.29972,-0.1378 0.10852,-0.1378 0.10852,-0.37552 0,-0.22909 -0.11886,-0.36173 -0.11885,-0.13436 -0.32728,-0.13436 -0.11369,0 -0.19293,0.031 -0.0792,0.0293 -0.17225,0.11713 z"
           style="stroke:none;stroke-width:0.352778"
           id="path21687" /><path
           d="m -164.42275,141.88749 v 0.34623 h -0.0517 q -0.3514,0.005 -0.56155,0.19293 -0.21015,0.18775 -0.24977,0.53226 0.20153,-0.21187 0.51504,-0.21187 0.33245,0 0.52365,0.23427 0.19293,0.23426 0.19293,0.60461 0,0.38241 -0.22565,0.62012 -0.22394,0.23599 -0.58912,0.23599 -0.37551,0 -0.60978,-0.27733 -0.23254,-0.27733 -0.23254,-0.72692 v -0.14297 q 0,-0.65974 0.32039,-1.03353 0.32212,-0.37379 0.92501,-0.37379 z m -0.44958,1.19717 q -0.13781,0 -0.25322,0.0775 -0.11368,0.0775 -0.16708,0.20671 v 0.12747 q 0,0.27905 0.11713,0.44442 0.11713,0.16364 0.30317,0.16364 0.18603,0 0.29455,-0.13953 0.10852,-0.13952 0.10852,-0.3669 0,-0.22738 -0.11024,-0.37035 -0.11024,-0.14297 -0.29283,-0.14297 z"
           style="stroke:none;stroke-width:0.352778"
           id="path21689" /></g></g></g></svg>
