<?xml version="1.0" encoding="UTF-8" standalone="no"?>
<!-- Created with Inkscape (http://www.inkscape.org/) -->

<svg
   width="19.050003mm"
   height="6.3500061mm"
   viewBox="0 0 19.050003 6.3500062"
   version="1.1"
   id="svg5"
   xml:space="preserve"
   inkscape:version="1.2.2 (1:1.2.2+202305151914+b0a8486541)"
   sodipodi:docname="HashLookup.svg"
   xmlns:inkscape="http://www.inkscape.org/namespaces/inkscape"
   xmlns:sodipodi="http://sodipodi.sourceforge.net/DTD/sodipodi-0.dtd"
   xmlns="http://www.w3.org/2000/svg"
   xmlns:svg="http://www.w3.org/2000/svg"><sodipodi:namedview
     id="namedview7"
     pagecolor="#ffffff"
     bordercolor="#000000"
     borderopacity="0.25"
     inkscape:showpageshadow="2"
     inkscape:pageopacity="0.0"
     inkscape:pagecheckerboard="0"
     inkscape:deskcolor="#d1d1d1"
     inkscape:document-units="mm"
     showgrid="false"
     inkscape:zoom="4"
     inkscape:cx="713.5"
     inkscape:cy="572.875"
     inkscape:window-width="2560"
     inkscape:window-height="1376"
     inkscape:window-x="0"
     inkscape:window-y="0"
     inkscape:window-maximized="1"
     inkscape:current-layer="layer1"
     showborder="false"
     showguides="true"><sodipodi:guide
       position="76.633169,-88.835188"
       orientation="1,0"
       id="guide35103"
       inkscape:locked="false" /><sodipodi:guide
       position="73.585849,-88.308088"
       orientation="1,0"
       id="guide35107"
       inkscape:locked="false" /><sodipodi:guide
       position="66.098929,-124.73538"
       orientation="1,0"
       id="guide17700"
       inkscape:locked="false" /><sodipodi:guide
       position="63.947409,-128.10298"
       orientation="1,0"
       id="guide17702"
       inkscape:locked="false" /></sodipodi:namedview><defs
     id="defs2" /><g
     inkscape:label="Layer 1"
     inkscape:groupmode="layer"
     id="layer1"
     transform="translate(143.45706,-142.87092)"><g
       id="g3052"
       transform="translate(0,3.7739299)"
       inkscape:export-filename="img/btns/yara-deactivated.svg"
       inkscape:export-xdpi="96"
       inkscape:export-ydpi="96"><rect
         style="fill:#48494a;fill-opacity:0.497161;stroke:#48494a;stroke-width:0.529167;stroke-linecap:round;stroke-linejoin:round;stroke-dasharray:none;stroke-opacity:1;paint-order:markers fill stroke"
         id="rect2941"
         width="18.520834"
         height="5.8208332"
         x="-143.19247"
         y="139.36157"
         rx="0.26458335"
         ry="0.26458332" /><g
         id="g2959"
         transform="translate(-0.14034238,-7.7398911)"
         style="font-size:3.52777px;font-family:'Roboto Medium';-inkscape-font-specification:'Roboto Medium, ';fill:#48494a;fill-opacity:1;stroke-width:0.352777"><g
           id="g2947"
           style="fill:#48494a;fill-opacity:1"><path
             d="m -139.09203,151.69739 q -0.60806,-0.17054 -0.62011,-0.77687 v -0.3669 q 0,-0.38758 -0.33246,-0.38758 v -0.30661 q 0.33246,0 0.33246,-0.38929 v -0.36518 q 0.005,-0.31006 0.16019,-0.50126 0.15675,-0.19121 0.45992,-0.27733 l 0.0827,0.24115 q -0.298,0.0965 -0.30833,0.5271 v 0.37207 q 0,0.38757 -0.298,0.54433 0.298,0.15847 0.298,0.54949 v 0.3669 q 0.0103,0.43064 0.30833,0.5271 z"
             style="fill:#48494a;fill-opacity:1;stroke-width:0.352778"
             id="path2943" /><path
             d="m -138.31334,151.45451 q 0.30316,-0.0982 0.31005,-0.53744 v -0.35829 q 0,-0.3979 0.31351,-0.54604 -0.31351,-0.14814 -0.31351,-0.55122 v -0.35656 q -0.007,-0.43925 -0.31005,-0.53744 l 0.0827,-0.24115 q 0.3135,0.0879 0.46681,0.28594 0.1533,0.19637 0.1533,0.51504 v 0.34451 q 0,0.38757 0.33418,0.38757 v 0.30661 q -0.33418,0 -0.33418,0.38758 v 0.33934 q 0,0.32211 -0.15502,0.51848 -0.15331,0.1981 -0.46509,0.28595 z"
             style="fill:#48494a;fill-opacity:1;stroke-width:0.352778"
             id="path2945" /></g><g
           id="g2957"
           transform="translate(0,0.188615)"
           style="fill:#48494a;fill-opacity:1"><path
             d="m -135.22482,149.7578 0.57705,-1.18855 h 0.48231 l -0.8406,1.58474 v 0.92328 h -0.43753 v -0.92328 l -0.84232,-1.58474 h 0.48404 z"
             style="fill:#48494a;fill-opacity:1;stroke-width:0.352778"
             id="path2949" /><path
             d="m -132.7478,150.49333 h -0.97152 l -0.20326,0.58394 h -0.45303 l 0.9474,-2.50802 h 0.39102 l 0.94912,2.50802 h -0.45475 z m -0.84922,-0.3514 h 0.72691 l -0.36345,-1.04042 z"
             style="fill:#48494a;fill-opacity:1;stroke-width:0.352778"
             id="path2951" /><path
             d="m -130.88229,150.11092 h -0.48576 v 0.96635 h -0.4358 v -2.50802 h 0.88194 q 0.43408,0 0.67007,0.19464 0.23599,0.19465 0.23599,0.56328 0,0.25149 -0.1223,0.42202 -0.12058,0.16881 -0.33762,0.2601 l 0.56327,1.04559 v 0.0224 h -0.46681 z m -0.48576,-0.34967 h 0.44787 q 0.22048,0 0.3445,-0.11025 0.12403,-0.11196 0.12403,-0.30489 0,-0.20153 -0.11541,-0.31178 -0.11369,-0.11024 -0.34107,-0.11368 h -0.45992 z"
             style="fill:#48494a;fill-opacity:1;stroke-width:0.352778"
             id="path2953" /><path
             d="m -128.19857,150.49333 h -0.97151 l -0.20326,0.58394 h -0.45303 l 0.9474,-2.50802 h 0.39102 l 0.94912,2.50802 h -0.45475 z m -0.84921,-0.3514 h 0.72691 l -0.36345,-1.04042 z"
             style="fill:#48494a;fill-opacity:1;stroke-width:0.352778"
             id="path2955" /></g></g></g></g></svg>
