<?xml version="1.0" encoding="UTF-8" standalone="no"?>
<!-- Created with Inkscape (http://www.inkscape.org/) -->

<svg
   width="6.3500061mm"
   height="6.3500061mm"
   viewBox="0 0 6.3500062 6.3500062"
   version="1.1"
   id="svg5"
   xml:space="preserve"
   inkscape:version="1.2.2 (1:1.2.2+202305151914+b0a8486541)"
   sodipodi:docname="HashLookup.svg"
   xmlns:inkscape="http://www.inkscape.org/namespaces/inkscape"
   xmlns:sodipodi="http://sodipodi.sourceforge.net/DTD/sodipodi-0.dtd"
   xmlns="http://www.w3.org/2000/svg"
   xmlns:svg="http://www.w3.org/2000/svg"><sodipodi:namedview
     id="namedview7"
     pagecolor="#ffffff"
     bordercolor="#000000"
     borderopacity="0.25"
     inkscape:showpageshadow="2"
     inkscape:pageopacity="0.0"
     inkscape:pagecheckerboard="0"
     inkscape:deskcolor="#d1d1d1"
     inkscape:document-units="mm"
     showgrid="false"
     inkscape:zoom="4"
     inkscape:cx="728"
     inkscape:cy="573.625"
     inkscape:window-width="2560"
     inkscape:window-height="1376"
     inkscape:window-x="0"
     inkscape:window-y="0"
     inkscape:window-maximized="1"
     inkscape:current-layer="layer1"
     showborder="false"
     showguides="true"><sodipodi:guide
       position="-156.67502,-73.325745"
       orientation="1,0"
       id="guide35103"
       inkscape:locked="false" /><sodipodi:guide
       position="-159.72234,-72.798645"
       orientation="1,0"
       id="guide35107"
       inkscape:locked="false" /><sodipodi:guide
       position="-167.20926,-109.22594"
       orientation="1,0"
       id="guide17700"
       inkscape:locked="false" /><sodipodi:guide
       position="-169.36078,-112.59354"
       orientation="1,0"
       id="guide17702"
       inkscape:locked="false" /></sodipodi:namedview><defs
     id="defs2" /><g
     inkscape:label="Layer 1"
     inkscape:groupmode="layer"
     id="layer1"
     transform="translate(-89.851127,-158.38036)"><g
       id="g2586"><rect
         style="fill:#48494a;fill-opacity:0.497161;stroke:#48494a;stroke-width:0.529167;stroke-linecap:round;stroke-linejoin:round;stroke-dasharray:none;stroke-opacity:1;paint-order:markers fill stroke"
         id="rect885"
         width="5.8208332"
         height="5.8208332"
         x="90.115685"
         y="158.64496"
         rx="0.26458332"
         ry="0.26458332" /><g
         aria-label="zip"
         id="g2564"
         style="font-weight:bold;font-size:3.175px;font-family:Roboto;-inkscape-font-specification:'Roboto Bold';fill:#ffc879;stroke-width:0.264583"
         transform="translate(-1.8876342e-6,9.4506651)"><path
           d="m 91.585881,152.59227 h 0.820105 v 0.36122 h -1.392163 v -0.27285 l 0.789099,-1.0418 h -0.765845 v -0.36277 h 1.344104 v 0.2651 z"
           id="path2557" /><path
           d="m 93.159428,152.95349 h -0.449585 v -1.67742 h 0.449585 z m -0.47594,-2.1115 q 0,-0.10077 0.06666,-0.16588 0.06821,-0.0651 0.184485,-0.0651 0.114722,0 0.182934,0.0651 0.06821,0.0651 0.06821,0.16588 0,0.10232 -0.06976,0.16743 -0.06821,0.0651 -0.181384,0.0651 -0.113172,0 -0.182935,-0.0651 -0.06821,-0.0651 -0.06821,-0.16743 z"
           id="path2559" /><path
           d="m 95.038383,152.13029 q 0,0.38757 -0.176733,0.62166 -0.175183,0.23255 -0.47439,0.23255 -0.254248,0 -0.410827,-0.17674 v 0.79065 h -0.448035 v -2.32234 h 0.415479 l 0.0155,0.16434 q 0.16278,-0.19534 0.42478,-0.19534 0.310058,0 0.482141,0.22944 0.172082,0.22945 0.172082,0.63252 z m -0.448034,-0.0326 q 0,-0.23409 -0.08372,-0.36122 -0.08217,-0.12712 -0.240295,-0.12712 -0.21084,0 -0.289905,0.16123 v 0.68678 q 0.08217,0.16588 0.293005,0.16588 0.320911,0 0.320911,-0.52555 z"
           id="path2562" /></g></g></g></svg>
