<?xml version="1.0" encoding="UTF-8" standalone="no"?>
<!-- Created with Inkscape (http://www.inkscape.org/) -->

<svg
   width="4.2333374mm"
   height="3.1750183mm"
   viewBox="0 0 4.2333374 3.1750184"
   version="1.1"
   id="svg5"
   xml:space="preserve"
   inkscape:version="1.2.2 (1:1.2.2+202305151914+b0a8486541)"
   sodipodi:docname="HashLookup.svg"
   xmlns:inkscape="http://www.inkscape.org/namespaces/inkscape"
   xmlns:sodipodi="http://sodipodi.sourceforge.net/DTD/sodipodi-0.dtd"
   xmlns="http://www.w3.org/2000/svg"
   xmlns:svg="http://www.w3.org/2000/svg"><sodipodi:namedview
     id="namedview7"
     pagecolor="#ffffff"
     bordercolor="#000000"
     borderopacity="0.25"
     inkscape:showpageshadow="2"
     inkscape:pageopacity="0.0"
     inkscape:pagecheckerboard="0"
     inkscape:deskcolor="#d1d1d1"
     inkscape:document-units="mm"
     showgrid="false"
     inkscape:zoom="11.313708"
     inkscape:cx="657.52095"
     inkscape:cy="520.29803"
     inkscape:window-width="2560"
     inkscape:window-height="1376"
     inkscape:window-x="0"
     inkscape:window-y="0"
     inkscape:window-maximized="1"
     inkscape:current-layer="layer1"
     showborder="false"
     showguides="true"><sodipodi:guide
       position="-7.5311219,-83.643325"
       orientation="1,0"
       id="guide35103"
       inkscape:locked="false" /><sodipodi:guide
       position="-10.578442,-83.116225"
       orientation="1,0"
       id="guide35107"
       inkscape:locked="false" /><sodipodi:guide
       position="-18.065362,-119.54352"
       orientation="1,0"
       id="guide17700"
       inkscape:locked="false" /><sodipodi:guide
       position="-20.216882,-122.91112"
       orientation="1,0"
       id="guide17702"
       inkscape:locked="false" /></sodipodi:namedview><defs
     id="defs2" /><g
     inkscape:label="Layer 1"
     inkscape:groupmode="layer"
     id="layer1"
     transform="translate(59.292765,-151.23777)"><g
       id="g10036"><path
         id="path11857"
         style="fill:#ebf0fa;fill-opacity:1;stroke:none;stroke-width:0.266211"
         d="m -58.82973,151.23777 c -0.255718,0 -0.463021,0.20987 -0.463021,0.46874 v 2.23753 c 0,0.25887 0.207303,0.46873 0.463021,0.46873 h 2.240076 c 0.255719,0 0.463021,-0.20986 0.463021,-0.46873 v -1.71897 c 0,-0.25886 -0.207302,-0.46873 -0.463021,-0.46873 h -0.748948 c -0.01831,0 -0.03587,-0.007 -0.04877,-0.0205 l -0.432223,-0.44157 c -0.03536,-0.0361 -0.08348,-0.0564 -0.13369,-0.0564 z m 2.240076,0.92086 c 0.03653,0 0.06615,0.0248 0.06615,0.0664 v 1.71897 c 0,0.0376 -0.02962,0.0669 -0.06615,0.0669 h -2.240076 c -0.03652,0 -0.06615,-0.0301 -0.06615,-0.0669 v -2.23753 c 0,-0.0346 0.02591,-0.0664 0.05943,-0.0664 m 0,0 h 2e-5 0.764977 c 0.0178,-1e-5 0.03487,0.007 0.04748,0.0198 l 0.436221,0.43989 c 0.03703,0.0374 0.08712,0.0583 0.139357,0.0583 l 0.858737,4.7e-4"
         sodipodi:nodetypes="cccssccsccscccsscccccccccssc" /><rect
         style="fill:none;fill-opacity:0.259384;stroke:none;stroke-width:0.312925"
         id="rect13183"
         width="4.2333331"
         height="3.175"
         x="-59.292751"
         y="151.23778" /></g></g></svg>
