<?xml version="1.0" encoding="UTF-8" standalone="no"?>
<!-- Created with Inkscape (http://www.inkscape.org/) -->

<svg
   width="1.4762802mm"
   height="1.5115623mm"
   viewBox="0 0 1.4762802 1.5115623"
   version="1.1"
   id="svg5"
   xml:space="preserve"
   xmlns:inkscape="http://www.inkscape.org/namespaces/inkscape"
   xmlns:sodipodi="http://sodipodi.sourceforge.net/DTD/sodipodi-0.dtd"
   xmlns="http://www.w3.org/2000/svg"
   xmlns:svg="http://www.w3.org/2000/svg"><sodipodi:namedview
     id="namedview7"
     pagecolor="#ffffff"
     bordercolor="#000000"
     borderopacity="0.25"
     inkscape:showpageshadow="2"
     inkscape:pageopacity="0.0"
     inkscape:pagecheckerboard="0"
     inkscape:deskcolor="#d1d1d1"
     inkscape:document-units="mm"
     showgrid="false" /><defs
     id="defs2" /><g
     inkscape:label="Layer 1"
     inkscape:groupmode="layer"
     id="layer1"
     transform="translate(-23.307416,-59.877329)"><g
       id="g2980"
       transform="translate(-1.566894,-0.47933121)"><path
         id="rect354"
         style="color:#000000;fill:#76a4bd;fill-opacity:1;stroke-width:1;stroke-linecap:round;stroke-linejoin:round;-inkscape-stroke:none;paint-order:markers fill stroke"
         d="m 25.236152,60.356683 c -0.05031,1.77e-4 -0.120964,0.07134 -0.120585,0.12165 v 1.269278 c 1.76e-4,0.04992 0.07067,0.120409 0.120585,0.120586 h 0.992788 c 0.05031,3.79e-4 0.121473,-0.07027 0.12165,-0.120586 v -0.825707 c -1.07e-4,-0.02372 -0.0094,-0.04644 -0.02608,-0.06333 l -0.459842,-0.473679 c -0.01681,-0.01765 -0.03976,-0.02783 -0.06413,-0.02821 z m 0.07314,0.182021 h 0.283523 c 0.0085,0 0.01527,0.0069 0.01523,0.01532 -4.44e-4,0.08164 -0.001,0.324561 -0.0018,0.476453 1.76e-4,0.04992 0.04055,0.0903 0.09048,0.09048 0.150862,3.2e-5 0.304138,1.99e-4 0.454304,-4.37e-4 0.0097,-4.1e-5 0.01752,0.0078 0.01752,0.01744 v 0.530146 c -6.9e-5,0.01007 -0.0083,0.01817 -0.01837,0.0181 h -0.836123 c -0.0096,4.5e-5 -0.01746,-0.0077 -0.01757,-0.0173 v -1.117401 c 2e-6,-0.0071 0.0057,-0.01277 0.01277,-0.01277 z m 0.487227,0.03641 0.348485,0.358712 c 0.0023,0.0023 6.28e-4,0.0062 -0.0026,0.0062 H 25.8064 c -0.01,-3.1e-5 -0.01807,-0.0081 -0.0181,-0.0181 v -0.343454 c -7e-6,-0.0043 0.0052,-0.0064 0.0082,-0.0034 z"
         sodipodi:nodetypes="cccccccccccccccccccccccccccccccsc"
         inkscape:export-filename="file.svg"
         inkscape:export-xdpi="96"
         inkscape:export-ydpi="96" /><rect
         style="opacity:0.204757;fill:none;fill-opacity:1;stroke:none;stroke-width:0.353;stroke-linecap:round;stroke-linejoin:round;stroke-dasharray:none;stroke-opacity:1;paint-order:markers fill stroke"
         id="rect2976"
         width="0.71138591"
         height="1.5115645"
         x="24.87431"
         y="60.356659" /></g></g></svg>
