<?xml version="1.0" encoding="UTF-8" standalone="no"?>
<!-- Created with Inkscape (http://www.inkscape.org/) -->

<svg
   width="4.5615158mm"
   height="4.2333336mm"
   viewBox="0 0 4.5615158 4.2333336"
   version="1.1"
   id="svg5"
   xml:space="preserve"
   xmlns:inkscape="http://www.inkscape.org/namespaces/inkscape"
   xmlns:sodipodi="http://sodipodi.sourceforge.net/DTD/sodipodi-0.dtd"
   xmlns="http://www.w3.org/2000/svg"
   xmlns:svg="http://www.w3.org/2000/svg"><sodipodi:namedview
     id="namedview7"
     pagecolor="#ffffff"
     bordercolor="#000000"
     borderopacity="0.25"
     inkscape:showpageshadow="2"
     inkscape:pageopacity="0.0"
     inkscape:pagecheckerboard="0"
     inkscape:deskcolor="#d1d1d1"
     inkscape:document-units="mm"
     showgrid="false" /><defs
     id="defs2" /><g
     inkscape:label="Layer 1"
     inkscape:groupmode="layer"
     id="layer1"
     transform="translate(-43.370862,-22.784042)"><g
       id="g3976"><path
         id="path3915"
         style="fill:#76a4bd;fill-opacity:1;stroke:none;stroke-width:0.264583"
         d="m 46.2839,22.784043 h -1.328084 c -0.255588,0 -0.463021,0.207434 -0.463021,0.463021 v 3.307291 c 0,0.255719 0.207302,0.463021 0.463021,0.463021 h 2.513541 c 0.255719,0 0.463021,-0.207302 0.463021,-0.463021 v -2.124934 l -0.0021,-0.396875 c -0.01081,-0.105388 -0.05805,-0.204525 -0.133842,-0.280087 l -0.833024,-0.832507 c -0.07618,-0.07642 -0.176321,-0.123536 -0.28267,-0.133842 m -1.724955,0.394811 1.328084,0.01292 v 0.772563 c 0,0.255718 0.207302,0.463021 0.463021,0.463021 h 0.77463 l 0.01395,2.124934 c 0,0 -0.02962,0.06614 -0.06615,0.06615 h -2.513541 c -0.03652,0 -0.06615,-0.02964 -0.06615,-0.06615 v -3.307291 c 0,-0.03654 0.03497,-0.06643 0.06615,-0.06615 z m 1.724959,0.01757 0.834058,0.834058 h -0.767912 c -0.03652,0 -0.06615,-0.02964 -0.06615,-0.06615 z"
         sodipodi:nodetypes="csssssscccccccsscccssscccsscc" /><rect
         style="fill:none;fill-opacity:1;stroke:none;stroke-width:0.0310717;stroke-dasharray:none;stroke-opacity:1"
         id="rect3972"
         width="4.54598"
         height="4.20226"
         x="43.370865"
         y="22.799582" /></g></g></svg>
