<?xml version="1.0" encoding="UTF-8" standalone="no"?>
<!-- Created with Inkscape (http://www.inkscape.org/) -->

<svg
   width="33.866669mm"
   height="33.866669mm"
   viewBox="0 0 33.866669 33.866669"
   version="1.1"
   id="svg5"
   xml:space="preserve"
   inkscape:version="1.2.2 (b0a8486541, 2022-12-01)"
   sodipodi:docname="drawing.svg"
   xmlns:inkscape="http://www.inkscape.org/namespaces/inkscape"
   xmlns:sodipodi="http://sodipodi.sourceforge.net/DTD/sodipodi-0.dtd"
   xmlns:xlink="http://www.w3.org/1999/xlink"
   xmlns="http://www.w3.org/2000/svg"
   xmlns:svg="http://www.w3.org/2000/svg"><sodipodi:namedview
     id="namedview7"
     pagecolor="#ffffff"
     bordercolor="#000000"
     borderopacity="0.25"
     inkscape:showpageshadow="2"
     inkscape:pageopacity="0.0"
     inkscape:pagecheckerboard="0"
     inkscape:deskcolor="#d1d1d1"
     inkscape:document-units="mm"
     showgrid="false"
     inkscape:zoom="2.8284271"
     inkscape:cx="231.04714"
     inkscape:cy="572.75649"
     inkscape:window-width="1920"
     inkscape:window-height="1131"
     inkscape:window-x="0"
     inkscape:window-y="0"
     inkscape:window-maximized="1"
     inkscape:current-layer="layer1" /><defs
     id="defs2"><linearGradient
       inkscape:collect="always"
       id="linearGradient1785"><stop
         style="stop-color:#464748;stop-opacity:1;"
         offset="0"
         id="stop1783" /><stop
         style="stop-color:#2a2b2c;stop-opacity:1;"
         offset="1"
         id="stop1781" /></linearGradient><linearGradient
       inkscape:collect="always"
       xlink:href="#linearGradient1785"
       id="linearGradient1928"
       gradientUnits="userSpaceOnUse"
       x1="59.041874"
       y1="231.4391"
       x2="59.041874"
       y2="247.34111" /></defs><g
     inkscape:label="Layer 1"
     inkscape:groupmode="layer"
     id="layer1"
     transform="translate(-77.837847,-231.9718)"><g
       id="g1926"
       transform="matrix(2.087364,0,0,2.0871132,-28.177417,-249.84155)"
       style="stroke-width:0.4791"><g
         id="g1920"
         style="stroke-width:0.4791;stroke-dasharray:none"><path
           style="color:#000000;fill:url(#linearGradient1928);stroke-width:0.4791;stroke-dasharray:none;paint-order:markers fill stroke"
           d="m 66.572508,238.96503 a 7.6715488,7.6715488 0 0 1 -7.671549,7.67155 7.6715488,7.6715488 0 0 1 -7.671549,-7.67155 7.6715488,7.6715488 0 0 1 7.671549,-7.67155 7.6715488,7.6715488 0 0 1 7.671549,7.67155 z"
           id="path1916" /><path
           style="color:#000000;fill:#76a4bd;stroke-width:0.4791;stroke-dasharray:none;paint-order:markers fill stroke"
           d="m 58.900391,230.85156 c -4.475194,0 -8.111328,3.63809 -8.111329,8.11328 0,4.4752 3.636135,8.11329 8.111329,8.11328 4.475194,0 8.113281,-3.63808 8.113281,-8.11328 0,-4.47519 -3.638087,-8.11328 -8.113281,-8.11328 z m 0,0.88281 c 3.998556,0 7.230468,3.23192 7.230468,7.23047 0,3.99856 -3.231912,7.23047 -7.230468,7.23047 -3.998557,0 -7.230469,-3.23191 -7.230469,-7.23047 0,-3.99855 3.231912,-7.23047 7.230469,-7.23047 z"
           id="path1918" /></g><g
         aria-label="#"
         id="g1924"
         style="font-weight:bold;font-size:11.2334px;font-family:Roboto;-inkscape-font-specification:'Roboto Bold';fill:#76a4bd;stroke-width:0.135214;paint-order:markers fill stroke"><path
           d="m 59.147788,240.70927 h -1.058616 l -0.394924,2.24888 h -1.003766 l 0.394924,-2.24888 h -1.245108 v -0.94343 h 1.40966 l 0.274253,-1.55776 h -1.272534 v -0.9544 h 1.442571 l 0.400409,-2.28178 h 0.998281 l -0.40041,2.28178 h 1.064102 l 0.400409,-2.28178 h 1.003766 l -0.40041,2.28178 h 1.201228 v 0.9544 h -1.371264 l -0.274253,1.55776 h 1.228653 v 0.94343 h -1.393205 l -0.394924,2.24888 h -1.003766 z m -0.894064,-0.94343 h 1.058616 l 0.274253,-1.55776 h -1.064102 z"
           style="stroke-width:0.135212"
           id="path1922" /></g></g></g></svg>
