<?xml version="1.0" encoding="UTF-8" standalone="no"?>
<!-- Created with Inkscape (http://www.inkscape.org/) -->

<svg
   width="4.2333374mm"
   height="3.1750031mm"
   viewBox="0 0 4.2333374 3.1750031"
   version="1.1"
   id="svg5"
   xml:space="preserve"
   inkscape:version="1.2.2 (1:1.2.2+202305151914+b0a8486541)"
   sodipodi:docname="HashLookup.svg"
   xmlns:inkscape="http://www.inkscape.org/namespaces/inkscape"
   xmlns:sodipodi="http://sodipodi.sourceforge.net/DTD/sodipodi-0.dtd"
   xmlns="http://www.w3.org/2000/svg"
   xmlns:svg="http://www.w3.org/2000/svg"><sodipodi:namedview
     id="namedview7"
     pagecolor="#ffffff"
     bordercolor="#000000"
     borderopacity="0.25"
     inkscape:showpageshadow="2"
     inkscape:pageopacity="0.0"
     inkscape:pagecheckerboard="0"
     inkscape:deskcolor="#d1d1d1"
     inkscape:document-units="mm"
     showgrid="false"
     inkscape:zoom="11.313708"
     inkscape:cx="657.52095"
     inkscape:cy="520.29803"
     inkscape:window-width="2560"
     inkscape:window-height="1376"
     inkscape:window-x="0"
     inkscape:window-y="0"
     inkscape:window-maximized="1"
     inkscape:current-layer="layer1"
     showborder="false"
     showguides="true"><sodipodi:guide
       position="-13.609995,-89.995896"
       orientation="1,0"
       id="guide35103"
       inkscape:locked="false" /><sodipodi:guide
       position="-16.657315,-89.468796"
       orientation="1,0"
       id="guide35107"
       inkscape:locked="false" /><sodipodi:guide
       position="-24.144235,-125.89609"
       orientation="1,0"
       id="guide17700"
       inkscape:locked="false" /><sodipodi:guide
       position="-26.295755,-129.26369"
       orientation="1,0"
       id="guide17702"
       inkscape:locked="false" /></sodipodi:namedview><defs
     id="defs2" /><g
     inkscape:label="Layer 1"
     inkscape:groupmode="layer"
     id="layer1"
     transform="translate(53.213892,-144.88521)"><g
       id="g5227"
       inkscape:export-filename="img/reload.svg"
       inkscape:export-xdpi="96"
       inkscape:export-ydpi="96"><g
         id="g8714"><path
           id="path8708"
           style="color:#000000;fill:#ebf0fa;stroke-linecap:round;-inkscape-stroke:none"
           d="m -12.649356,153.36578 c -0.122962,0.0345 -0.243186,0.0845 -0.357465,0.15085 -0.609489,0.35379 -0.906411,1.07734 -0.724499,1.75992 0.181913,0.68257 0.799652,1.15803 1.50377,1.15803 0.704118,0 1.321708,-0.47546 1.503621,-1.15803 a 0.1872455,0.1872455 0 0 0 -0.132637,-0.23058 0.1872455,0.1872455 0 0 0 -0.228502,0.13268 c -0.13893,0.5213 -0.606758,0.88314 -1.142284,0.88314 -0.535526,0 -1.004129,-0.3617 -1.14306,-0.883 -0.13893,-0.52129 0.08874,-1.06835 0.552818,-1.33773 0.319174,-0.18527 0.694787,-0.20669 1.021332,-0.0778 l -0.382412,0.38057 1.445287,0.39034 c -0.125435,-0.48299 -0.255049,-0.9648 -0.382999,-1.44713 l -0.396864,0.39462 c -0.160911,-0.0829 -0.333889,-0.13676 -0.511011,-0.1602 -0.207248,-0.0274 -0.42016,-0.0132 -0.625095,0.0443 z"
           transform="matrix(0.96552136,0.26032381,-0.25732166,0.9663258,4.1666661e-7,3.1250002e-8)" /><rect
           style="fill:none;fill-opacity:0.259384;stroke:none;stroke-width:0.312925"
           id="rect2879"
           width="4.2333331"
           height="3.175"
           x="-53.213902"
           y="144.88521" /></g></g></g></svg>
